<svg width="24" height="24" viewBox="0 0 24 24" fill="none" xmlns="http://www.w3.org/2000/svg">
<path d="M6.40576 19.3189C6.95138 19.7706 7.78057 20.1014 8.98575 19.9695C8.98641 20.0525 8.98705 20.1322 8.98767 20.2082C8.99112 20.6349 8.99364 20.9471 8.99364 21.1003C8.99364 21.1026 8.99357 21.1047 8.99344 21.1067C8.97903 21.1077 8.95695 21.1076 8.92587 21.1035C5.12924 19.8185 2.39453 16.2305 2.39453 12C2.39453 6.69912 6.69312 2.39473 11.9998 2.39473C17.3063 2.39473 21.6051 6.69892 21.6051 12.0062C21.6051 16.2316 18.8751 19.82 15.0776 21.1043C15.0455 21.109 15.022 21.1097 15.006 21.1091C15.006 21.1083 15.0059 21.1074 15.0059 21.1065C15.0059 20.997 15.0073 20.8058 15.0091 20.5482C15.01 20.417 15.0111 20.2685 15.0121 20.1048C15.0152 19.6219 15.0184 19.0113 15.0184 18.3336C15.0184 17.7404 14.9017 17.2369 14.7121 16.8342C15.6217 16.6614 16.5465 16.3433 17.3027 15.7108C18.3153 14.8639 18.9451 13.5237 18.9451 11.4727C18.9451 10.3542 18.5828 9.41244 17.974 8.65324C18.1219 8.13298 18.2651 7.13834 17.7745 5.90357L17.6874 5.6843L17.4628 5.61215L17.3099 6.0882C17.4628 5.61215 17.4623 5.61199 17.4618 5.61184L17.4608 5.61152L17.4588 5.61088L17.4544 5.60955L17.4448 5.60671C17.4379 5.60474 17.4302 5.60265 17.4215 5.60048C17.4042 5.59613 17.3834 5.59151 17.359 5.58708C17.3101 5.5782 17.2473 5.57015 17.1703 5.56655C17.0159 5.55932 16.8069 5.5701 16.5409 5.62604C16.0438 5.73056 15.3513 5.99181 14.441 6.58354C13.6533 6.38675 12.8214 6.28891 12.0034 6.28299V6.28293L11.9962 6.28299C11.1725 6.28891 10.3452 6.38677 9.55855 6.58351C8.64825 5.9918 7.95581 5.73056 7.45869 5.62604C7.19264 5.5701 6.98368 5.55932 6.82929 5.56655C6.75226 5.57015 6.68948 5.5782 6.64062 5.58708C6.61623 5.59151 6.59539 5.59613 6.57808 5.60048C6.56943 5.60265 6.56167 5.60474 6.55479 5.60671L6.54515 5.60955L6.54082 5.61088L6.53878 5.61152L6.5378 5.61184C6.53731 5.61199 6.53683 5.61215 6.68972 6.0882L6.53683 5.61215L6.31218 5.6843L6.22506 5.90357C5.73492 7.13719 5.87745 8.13112 6.02519 8.65178C5.4107 9.41161 5.04831 10.354 5.04831 11.4727C5.04831 13.5176 5.67654 14.8584 6.68555 15.7082C7.44184 16.3452 8.36752 16.667 9.27818 16.8411C9.19257 17.0257 9.12218 17.2311 9.07099 17.4563C8.8288 17.5393 8.52052 17.6067 8.20721 17.5789C7.81476 17.5441 7.37104 17.3588 7.00516 16.7318L7.00395 16.7297L6.996 16.716C6.98957 16.7051 6.98089 16.6908 6.96996 16.6734C6.94812 16.6387 6.91712 16.5916 6.87701 16.5361C6.79724 16.4257 6.67894 16.2784 6.52215 16.1277C6.21225 15.8297 5.72058 15.4893 5.05773 15.4405L5.04254 15.4394L5.02731 15.4392L5.02102 15.9391C5.02731 15.4392 5.02715 15.4392 5.02699 15.4392L5.02665 15.4392L5.0259 15.4391L5.02411 15.4391L5.0194 15.4391L5.00573 15.4392C4.99483 15.4393 4.98029 15.4395 4.96288 15.4401C4.92851 15.4413 4.88072 15.444 4.82637 15.45C4.73761 15.4598 4.55528 15.4854 4.39482 15.577C4.30921 15.6258 4.18393 15.7194 4.11226 15.8845C4.03386 16.0651 4.05584 16.2459 4.11536 16.3871C4.21354 16.6201 4.43721 16.8067 4.67094 16.9662L4.70441 16.9891L4.73386 17.0029C4.73453 17.0032 4.73534 17.0037 4.73628 17.0042C4.74364 17.0084 4.75942 17.0177 4.78207 17.0331C4.82731 17.0639 4.90025 17.1194 4.98849 17.2077C5.16219 17.3814 5.40206 17.6888 5.60514 18.1997C5.60705 18.2053 5.60927 18.2117 5.61181 18.2189C5.6196 18.2408 5.63049 18.2698 5.64492 18.3045C5.67374 18.3739 5.71704 18.4672 5.77859 18.5748C5.90135 18.7893 6.0999 19.0657 6.40576 19.3189Z" fill="#191717" stroke="black"/>
</svg>
